<svg width="638" height="23" viewBox="0 0 638 23" fill="none" xmlns="http://www.w3.org/2000/svg">
<path d="M1.65558 10.3276L0.155579 10.3276L0.155579 13.3276L1.65558 13.3276L1.65558 10.3276ZM637.47 12.8882C638.055 12.3024 638.055 11.3527 637.47 10.7669L627.924 1.22095C627.338 0.635159 626.388 0.635159 625.802 1.22095C625.217 1.80673 625.217 2.75648 625.802 3.34227L634.288 11.8275L625.802 20.3128C625.217 20.8986 625.217 21.8484 625.802 22.4341C626.388 23.0199 627.338 23.0199 627.924 22.4341L637.47 12.8882ZM1.65558 13.3276L636.409 13.3275L636.409 10.3275L1.65558 10.3276L1.65558 13.3276Z" fill="black"/>
</svg>
