<svg width="0" height="0" class="hidden">
  <symbol fill="none" xmlns="http://www.w3.org/2000/svg" viewBox="0 0 141 140" id="advantage4">
    <circle cx="28.7213" cy="30.1895" r="13.2675" stroke="white" stroke-width="3"></circle>
    <path d="M28.3024 24.9117V33.2827" stroke="white" stroke-width="3"></path>
    <path d="M32.4879 11.6577L24.117 11.6577" stroke="white" stroke-width="3"></path>
    <mask id="path-4-inside-1_102_2396" fill="white">
      <path fill-rule="evenodd" clip-rule="evenodd" d="M71.253 50.8202C78.8682 50.8202 85.0416 44.5879 85.0416 36.9H98.4778H99.4775V37.4827L125.039 52.3811L111.866 75.4141L99.4775 68.1933V104.845H43.0283V67.6106L29.64 75.4141L16.4676 52.3811L43.0283 36.9H57.4643C57.4643 44.5879 63.6377 50.8202 71.253 50.8202Z"></path>
    </mask>
    <path d="M85.0416 36.9V33.9H82.0416V36.9H85.0416ZM99.4775 36.9H102.477V33.9H99.4775V36.9ZM99.4775 37.4827H96.4775V39.2065L97.9668 40.0746L99.4775 37.4827ZM125.039 52.3811L127.643 53.8705L129.12 51.2876L126.549 49.7893L125.039 52.3811ZM111.866 75.4141L110.355 78.006L112.969 79.5291L114.47 76.9034L111.866 75.4141ZM99.4775 68.1933L100.988 65.6014L96.4775 62.9723V68.1933H99.4775ZM99.4775 104.845V107.845H102.477V104.845H99.4775ZM43.0283 104.845H40.0283V107.845H43.0283V104.845ZM43.0283 67.6106H46.0283V62.3897L41.5176 65.0188L43.0283 67.6106ZM29.64 75.4141L27.0358 76.9034L28.5374 79.5291L31.1507 78.006L29.64 75.4141ZM16.4676 52.3811L14.9569 49.7893L12.3862 51.2876L13.8634 53.8705L16.4676 52.3811ZM43.0283 36.9V33.9H42.2178L41.5176 34.3082L43.0283 36.9ZM57.4643 36.9H60.4643V33.9H57.4643V36.9ZM82.0416 36.9C82.0416 42.958 77.1846 47.8202 71.253 47.8202V53.8202C80.5519 53.8202 88.0416 46.2179 88.0416 36.9H82.0416ZM85.0416 39.9H98.4778V33.9H85.0416V39.9ZM98.4778 39.9H99.4775V33.9H98.4778V39.9ZM96.4775 36.9V37.4827H102.477V36.9H96.4775ZM97.9668 40.0746L123.528 54.973L126.549 49.7893L100.988 34.8908L97.9668 40.0746ZM122.434 50.8918L109.262 73.9248L114.47 76.9034L127.643 53.8705L122.434 50.8918ZM113.377 72.8222L100.988 65.6014L97.9668 70.7852L110.355 78.006L113.377 72.8222ZM96.4775 68.1933V104.845H102.477V68.1933H96.4775ZM99.4775 101.845H43.0283V107.845H99.4775V101.845ZM46.0283 104.845V67.6106H40.0283V104.845H46.0283ZM41.5176 65.0188L28.1293 72.8222L31.1507 78.006L44.539 70.2025L41.5176 65.0188ZM32.2442 73.9248L19.0718 50.8918L13.8634 53.8705L27.0358 76.9034L32.2442 73.9248ZM17.9783 54.973L44.539 39.4919L41.5176 34.3082L14.9569 49.7893L17.9783 54.973ZM43.0283 39.9H57.4643V33.9H43.0283V39.9ZM71.253 47.8202C65.3213 47.8202 60.4643 42.958 60.4643 36.9H54.4643C54.4643 46.2179 61.9541 53.8202 71.253 53.8202V47.8202Z" fill="white" mask="url(#path-4-inside-1_102_2396)"></path>
    <path d="M42.8676 124.58V119.593H63.2437V124.58" stroke="white" stroke-width="3"></path>
    <path d="M80.8624 124.58V119.593H101.239V124.58" stroke="white" stroke-width="3"></path>
    <path d="M52.9138 118.97V108.996" stroke="white" stroke-width="3"></path>
    <path d="M91.0505 118.97V108.996" stroke="white" stroke-width="3"></path>
  </symbol>
  <symbol fill="none" xmlns="http://www.w3.org/2000/svg" viewBox="0 0 141 140" id="advantage3">
    <path d="M111.183 111.507C111.183 111.775 111.041 112.218 110.366 112.806C109.696 113.39 108.638 113.985 107.201 114.514C104.34 115.568 100.287 116.25 95.737 116.25C91.1871 116.25 87.1341 115.568 84.2727 114.514C82.8361 113.985 81.7785 113.39 81.1076 112.806C80.4333 112.218 80.2907 111.775 80.2907 111.507C80.2907 111.238 80.4333 110.795 81.1076 110.207C81.7785 109.623 82.8361 109.029 84.2727 108.499C87.1341 107.445 91.1871 106.763 95.737 106.763C100.287 106.763 104.34 107.445 107.201 108.499C108.638 109.029 109.696 109.623 110.366 110.207C111.041 110.795 111.183 111.238 111.183 111.507Z" stroke="white" stroke-width="3"></path>
    <mask id="path-2-inside-1_102_2395" fill="white">
      <path fill-rule="evenodd" clip-rule="evenodd" d="M113.167 118.997C113.167 118.994 113.167 118.992 113.167 118.99C113.167 118.987 113.167 118.985 113.167 118.982V111.658C113.167 111.655 113.167 111.653 113.167 111.65C113.167 111.648 113.167 111.645 113.167 111.643V111.219H113.128C112.526 107.893 105.012 105.263 95.8307 105.263C86.6495 105.263 79.1352 107.893 78.5334 111.219H78.4945V111.65V118.99V119.421H78.5334C79.1352 122.747 86.6495 125.377 95.8307 125.377C105.012 125.377 112.526 122.747 113.128 119.421H113.167V118.997Z"></path>
    </mask>
    <path d="M113.167 118.997L110.167 118.988V118.997H113.167ZM113.167 118.982H110.167L110.167 118.991L113.167 118.982ZM113.167 111.658L110.167 111.648V111.658H113.167ZM113.167 111.643H110.167L110.167 111.652L113.167 111.643ZM113.167 111.219H116.167V108.219H113.167V111.219ZM113.128 111.219L110.176 111.753L110.622 114.219H113.128V111.219ZM78.5334 111.219V114.219H81.0393L81.4855 111.753L78.5334 111.219ZM78.4945 111.219V108.219H75.4945V111.219H78.4945ZM78.4945 119.421H75.4945V122.421H78.4945V119.421ZM78.5334 119.421L81.4855 118.887L81.0393 116.421H78.5334V119.421ZM113.128 119.421V116.421H110.622L110.176 118.887L113.128 119.421ZM113.167 119.421V122.421H116.167V119.421H113.167ZM116.167 119.006C116.167 119.001 116.167 118.995 116.167 118.99H110.167C110.167 118.989 110.167 118.988 110.167 118.988L116.167 119.006ZM116.167 118.99C116.167 118.984 116.167 118.978 116.167 118.973L110.167 118.991C110.167 118.991 110.167 118.99 110.167 118.99H116.167ZM110.167 111.658V118.982H116.167V111.658H110.167ZM116.167 111.667C116.167 111.661 116.167 111.656 116.167 111.65H110.167C110.167 111.65 110.167 111.649 110.167 111.648L116.167 111.667ZM116.167 111.65C116.167 111.645 116.167 111.639 116.167 111.634L110.167 111.652C110.167 111.651 110.167 111.651 110.167 111.65H116.167ZM110.167 111.219V111.643H116.167V111.219H110.167ZM113.128 114.219H113.167V108.219H113.128V114.219ZM116.08 110.685C115.744 108.83 114.528 107.454 113.287 106.504C112.016 105.53 110.413 104.759 108.678 104.159C105.193 102.953 100.675 102.263 95.8307 102.263V108.263C100.168 108.263 103.998 108.888 106.716 109.829C108.082 110.301 109.044 110.812 109.638 111.267C110.262 111.744 110.211 111.945 110.176 111.753L116.08 110.685ZM95.8307 102.263C90.9866 102.263 86.4687 102.953 82.9838 104.159C81.2483 104.759 79.6458 105.53 78.3746 106.504C77.1332 107.454 75.917 108.83 75.5813 110.685L81.4855 111.753C81.4507 111.945 81.3995 111.744 82.0231 111.267C82.617 110.812 83.5798 110.301 84.9458 109.829C87.6637 108.888 91.4936 108.263 95.8307 108.263V102.263ZM78.4945 114.219H78.5334V108.219H78.4945V114.219ZM81.4945 111.65V111.219H75.4945V111.65H81.4945ZM81.4945 118.99V111.65H75.4945V118.99H81.4945ZM81.4945 119.421V118.99H75.4945V119.421H81.4945ZM78.5334 116.421H78.4945V122.421H78.5334V116.421ZM75.5813 119.955C75.917 121.81 77.1332 123.185 78.3747 124.136C79.6458 125.11 81.2483 125.881 82.9838 126.481C86.4687 127.687 90.9866 128.377 95.8307 128.377V122.377C91.4936 122.377 87.6637 121.751 84.9458 120.811C83.5798 120.338 82.617 119.828 82.0231 119.373C81.3995 118.895 81.4507 118.695 81.4855 118.887L75.5813 119.955ZM95.8307 128.377C100.675 128.377 105.193 127.687 108.678 126.481C110.413 125.881 112.016 125.11 113.287 124.136C114.528 123.185 115.744 121.81 116.08 119.955L110.176 118.887C110.211 118.695 110.262 118.895 109.638 119.373C109.044 119.828 108.082 120.338 106.716 120.811C103.998 121.751 100.168 122.377 95.8307 122.377V128.377ZM113.167 116.421H113.128V122.421H113.167V116.421ZM110.167 118.997V119.421H116.167V118.997H110.167Z" fill="white" mask="url(#path-2-inside-1_102_2395)"></path>
    <path d="M106.381 84.8804L122.849 101.313C124.11 102.57 126.262 101.678 126.262 99.8968V37.3309C126.262 31.808 121.785 27.3309 116.262 27.3309H38.2387C32.7158 27.3309 28.2387 31.808 28.2387 37.3309V100.218C28.2387 101.951 26.1848 102.864 24.8984 101.702L9.47775 87.7807C8.11832 86.5535 8.98649 84.2962 10.818 84.2962H104.968C105.498 84.2962 106.006 84.5063 106.381 84.8804Z" stroke="white" stroke-width="3"></path>
    <path d="M45.4926 124.618C50.4542 123.201 56.7859 113.816 60.4334 107.385C61.1718 106.083 60.2128 104.508 58.7161 104.508H56.835C56.1891 104.508 55.5776 104.832 55.1898 105.349C43.4962 120.925 30.8189 115.424 13.2764 112.143C12.0597 111.915 10.9434 112.856 10.9434 114.094V120.74C10.9434 121.531 11.4028 122.247 12.1594 122.475C18.6595 124.438 38.7744 126.538 45.4926 124.618Z" stroke="white" stroke-width="3"></path>
    <path d="M56.837 104.508L125.274 15.7934C125.931 14.9415 127.144 14.7622 128.02 15.3875L128.354 15.6266C129.283 16.2902 129.469 17.5956 128.763 18.4922L60.9623 104.508" stroke="white" stroke-width="3"></path>
    <path d="M8.72531 84.606C12.9384 82.1277 21.3647 73.751 21.3647 60.0707C21.3647 51.3623 21.3647 39.9827 21.3647 30.6879C21.3647 23.5082 27.185 17.6915 34.3647 17.6915H106.686C110.134 17.6915 113.441 19.0611 115.879 21.4991L118.92 24.5406C119.295 24.9157 119.506 25.4227 119.506 25.9531C119.506 34.2619 119.506 51.4661 119.506 60.0707C119.506 68.9718 111.08 80.1364 106.867 84.606" stroke="white" stroke-width="3"></path>
    <path d="M67.8807 17.6489L78.4945 28.2627" stroke="white" stroke-width="3"></path>
  </symbol>
  <symbol fill="none" xmlns="http://www.w3.org/2000/svg" viewBox="0 0 141 140" id="advantage5">
    <rect x="32.793" y="20.0551" width="72.4221" height="69.7757" rx="13.5" stroke="white" stroke-width="3"></rect>
    <rect x="40.576" y="27.565" width="56.8561" height="54.7559" rx="8.5" stroke="white" stroke-width="3"></rect>
    <path d="M55.5112 74.9678V59.6881M55.5112 59.6881V39.9183C55.5112 38.8138 56.4037 37.9183 57.5083 37.9183C60.5474 37.9183 66.2756 37.9183 74.6192 37.9183C88.1526 37.9183 87.4211 59.6881 74.6192 59.6881C64.3776 59.6881 57.6132 59.6881 55.5112 59.6881Z" stroke="white" stroke-width="3"></path>
    <rect x="64.9631" y="90.162" width="8.0819" height="36.3698" stroke="white" stroke-width="3"></rect>
    <line x1="120.041" y1="127.503" x2="17.9675" y2="127.503" stroke="white" stroke-width="3"></line>
  </symbol>
  <symbol fill="none" xmlns="http://www.w3.org/2000/svg" viewBox="0 0 141 140" id="advantage6">
    <circle cx="33.0068" cy="111.744" r="6.2233" stroke="white" stroke-width="3"></circle>
    <rect x="23.4736" y="22.0325" width="19.0665" height="74.42" rx="8.5" stroke="white" stroke-width="3"></rect>
    <line x1="33.5275" y1="87.8414" x2="33.5275" y2="57.5567" stroke="white" stroke-width="3"></line>
    <circle cx="70.255" cy="87.8414" r="6.2233" stroke="white" stroke-width="3"></circle>
    <path d="M120.04 81.5608C120.04 99.2321 105.714 113.557 88.0431 113.557C70.3718 113.557 56.0464 99.2321 56.0464 81.5608C56.0464 77.2944 58.0068 71.4277 61.1343 64.866C64.2356 58.3593 68.3845 51.3694 72.5542 44.924C76.7205 38.4839 80.8894 32.615 84.0182 28.3546C85.5821 26.2251 86.8848 24.4991 87.7958 23.3066C87.8817 23.1941 87.9642 23.0863 88.0431 22.9834C88.1219 23.0863 88.2044 23.1941 88.2904 23.3066C89.2013 24.4991 90.5041 26.2251 92.0679 28.3546C95.1967 32.615 99.3657 38.4839 103.532 44.924C107.702 51.3694 111.851 58.3593 114.952 64.866C118.079 71.4277 120.04 77.2944 120.04 81.5608Z" stroke="white" stroke-width="3"></path>
    <line x1="112.31" y1="31.6577" x2="112.31" y2="39.7932" stroke="white" stroke-width="3"></line>
    <line x1="112.31" y1="20.5325" x2="112.31" y2="28.668" stroke="white" stroke-width="3"></line>
    <line x1="121.54" y1="30.4819" x2="113.404" y2="30.4819" stroke="white" stroke-width="3"></line>
    <line x1="110.574" y1="30.4819" x2="102.439" y2="30.4819" stroke="white" stroke-width="3"></line>
  </symbol>
  <symbol fill="none" xmlns="http://www.w3.org/2000/svg" viewBox="0 0 120 120" id="possibility1">
    <path d="M73.7271 62.3784C72.3307 60.982 70.3757 57.1718 73.7271 53.1023C77.0784 49.0327 73.9264 44.6241 71.9316 42.9284" stroke="black" stroke-width="3"></path>
    <path d="M79.539 62.3784C78.1426 60.982 76.1877 57.1718 79.539 53.1023C82.8904 49.0327 79.7384 44.6241 77.7435 42.9284" stroke="black" stroke-width="3"></path>
    <path d="M67.9153 62.3784C66.5189 60.982 64.564 57.1718 67.9153 53.1023C71.2667 49.0328 68.1147 44.6241 66.1198 42.9285" stroke="black" stroke-width="3"></path>
    <path d="M99.9242 80.1773H23.9964L17.3526 93.4647C17.8271 95.3629 21.149 99.1593 30.64 99.1593H87.1113C100.399 99.1593 104.986 95.3629 105.619 93.4647L99.9242 80.1773Z" stroke="black" stroke-width="3"></path>
    <path d="M20.2002 97.261C20.6747 100.108 22.9526 105.803 28.2675 105.803C34.9112 105.803 81.8915 105.803 89.9589 105.803C98.0262 105.803 104.512 98.2101 105.144 94.4137" stroke="black" stroke-width="3"></path>
    <path d="M46.0653 80.1488C46.0653 80.1488 39.6047 84.4373 39.6046 88.2337C39.6046 92.9792 48.6053 92.8034 78.9922 94.4027C86.2053 94.7823 84.0054 88.2337 78.9922 80.1487" stroke="black" stroke-width="3"></path>
    <path d="M100.874 79.701H107.043C107.043 76.3791 107.043 68.8813 107.043 65.4645C107.043 61.1936 103.721 52.1771 91.3829 52.1771C83.3155 52.1771 62.5327 52.1771 62.5327 35.4259C62.5327 27.8825 62.5326 16.3946 62.5326 12.3688C60.5807 12.3688 56.6769 13.5886 56.6769 18.4684C56.6769 23.3481 56.6769 29.9357 56.6769 32.6196" stroke="black" stroke-width="3"></path>
    <path d="M24.2463 80.4267C17.4366 74.8677 14.9739 62.1461 18.3019 54.5517C21.8837 46.3779 21.1492 36.0443 21.1492 36.0443V13.7405C23.3637 13.2659 27.7928 14.6896 27.7928 24.1805C27.7928 33.6715 27.7928 33.5133 27.7928 32.2478C32.0638 32.2478 41.6497 32.2478 45.8257 32.2478C51.0457 32.2478 54.3676 35.0951 54.3676 40.7897C54.3676 46.4843 56.7403 54.5517 70.0277 54.5517H81.0097" stroke="black" stroke-width="3"></path>
    <line x1="9.78918" y1="110.208" x2="9.78918" y2="117.549" stroke="black" stroke-width="3"></line>
    <line x1="9.78925" y1="99.1083" x2="9.78925" y2="106.449" stroke="black" stroke-width="3"></line>
    <line x1="18.9696" y1="108.232" x2="11.6293" y2="108.232" stroke="black" stroke-width="3"></line>
    <line x1="8.07601" y1="108.232" x2="0.735747" y2="108.232" stroke="black" stroke-width="3"></line>
  </symbol>
  <symbol fill="none" xmlns="http://www.w3.org/2000/svg" viewBox="0 0 121 120" id="possibility2">
    <mask id="path-1-inside-1_226_3337" fill="white">
      <path fill-rule="evenodd" clip-rule="evenodd" d="M94.5372 41.468H30.8797V46.8815H25.755C17.5435 46.8815 10.8867 53.5383 10.8867 61.7498C10.8867 69.9613 17.5435 76.6181 25.755 76.6181H33.2573C38.0177 88.1995 49.4107 96.3543 62.7085 96.3543C80.287 96.3543 94.5372 82.1041 94.5372 64.5255V41.468ZM30.8797 56.1275V64.5255C30.8797 65.485 30.9222 66.4345 31.0053 67.3723L26.867 67.3723C23.7618 67.3723 21.2446 64.8551 21.2446 61.7499C21.2446 58.6448 23.7618 56.1275 26.867 56.1275H30.8797Z"></path>
    </mask>
    <path d="M30.8797 41.468V38.468H27.8797V41.468H30.8797ZM94.5372 41.468H97.5372V38.468H94.5372V41.468ZM30.8797 46.8815V49.8815H33.8797V46.8815H30.8797ZM10.8867 61.7498H13.8867H10.8867ZM33.2573 76.6181L36.032 75.4775L35.2677 73.6181H33.2573V76.6181ZM30.8797 56.1275H33.8797V53.1275H30.8797V56.1275ZM31.0053 67.3723L31.0053 70.3723L34.283 70.3723L33.9936 67.1074L31.0053 67.3723ZM26.867 67.3723L26.867 64.3723H26.867V67.3723ZM21.2446 61.7499L24.2446 61.7499V61.7499H21.2446ZM30.8797 44.468H94.5372V38.468H30.8797V44.468ZM33.8797 46.8815V41.468H27.8797V46.8815H33.8797ZM30.8797 43.8815H25.755V49.8815H30.8797V43.8815ZM25.755 43.8815C15.8866 43.8815 7.88675 51.8814 7.88675 61.7498H13.8867C13.8867 55.1951 19.2004 49.8815 25.755 49.8815V43.8815ZM7.88675 61.7498C7.88675 71.6182 15.8866 79.6181 25.755 79.6181V73.6181C19.2003 73.6181 13.8867 68.3045 13.8867 61.7498H7.88675ZM25.755 79.6181H33.2573V73.6181H25.755V79.6181ZM62.7085 93.3543C50.6688 93.3543 40.3461 85.9731 36.032 75.4775L30.4825 77.7586C35.6893 90.4259 48.1527 99.3543 62.7085 99.3543V93.3543ZM91.5372 64.5255C91.5372 80.4472 78.6301 93.3543 62.7085 93.3543V99.3543C81.9438 99.3543 97.5372 83.7609 97.5372 64.5255H91.5372ZM91.5372 41.468V64.5255H97.5372V41.468H91.5372ZM33.8797 64.5255V56.1275H27.8797V64.5255H33.8797ZM33.9936 67.1074C33.9183 66.2576 33.8797 65.3964 33.8797 64.5255H27.8797C27.8797 65.5735 27.9261 66.6114 28.017 67.6372L33.9936 67.1074ZM26.867 70.3723L31.0053 70.3723L31.0053 64.3723L26.867 64.3723L26.867 70.3723ZM18.2446 61.7499C18.2446 66.5119 22.1049 70.3723 26.867 70.3723V64.3723C25.4187 64.3723 24.2446 63.1982 24.2446 61.7499L18.2446 61.7499ZM26.867 53.1275C22.1049 53.1275 18.2446 56.9879 18.2446 61.7499H24.2446C24.2446 60.3016 25.4187 59.1275 26.867 59.1275V53.1275ZM30.8797 53.1275H26.867V59.1275H30.8797V53.1275Z" fill="black" mask="url(#path-1-inside-1_226_3337)"></path>
    <path d="M61.5995 35.7852C59.774 33.9596 57.2182 28.9783 61.5995 23.6581C65.9809 18.3378 61.8602 12.5741 59.2522 10.3574" stroke="black" stroke-width="3"></path>
    <path d="M69.1979 35.7852C67.3724 33.9596 64.8166 28.9783 69.1979 23.6581C73.5793 18.3378 69.4586 12.5741 66.8506 10.3574" stroke="black" stroke-width="3"></path>
    <path d="M54.0016 35.7852C52.176 33.9596 49.6202 28.9783 54.0016 23.6581C58.3829 18.3378 54.2622 12.5741 51.6542 10.3574" stroke="black" stroke-width="3"></path>
    <path d="M15.0036 98.2467C15.0036 97.4843 15.6217 96.8663 16.3841 96.8663H107.211C107.973 96.8663 108.591 97.4843 108.591 98.2467C108.591 98.8562 108.192 99.3935 107.608 99.5688L88.6091 105.276C86.6959 105.851 84.7091 106.143 82.7114 106.143H61.7975H40.8835C38.8859 106.143 36.899 105.851 34.9858 105.276L15.9869 99.5688C15.4033 99.3935 15.0036 98.8562 15.0036 98.2467Z" stroke="black" stroke-width="3"></path>
  </symbol>
  <symbol fill="none" xmlns="http://www.w3.org/2000/svg" viewBox="0 0 121 121" id="possibility3">
    <path d="M8.39981 64.6128C10.2254 62.7873 15.2067 60.2315 20.527 64.6128C25.8472 68.9942 31.6109 64.8735 33.8277 62.2655" stroke="black" stroke-width="3"></path>
    <path d="M8.39981 72.2112C10.2254 70.3857 15.2067 67.8299 20.527 72.2112C25.8472 76.5926 31.6109 72.4719 33.8277 69.8639" stroke="black" stroke-width="3"></path>
    <path d="M8.39978 57.0148C10.2254 55.1892 15.2066 52.6335 20.5269 57.0148C25.8472 61.3962 31.6109 57.2755 33.8276 54.6675" stroke="black" stroke-width="3"></path>
    <mask id="path-4-inside-1_226_3368" fill="white">
      <path fill-rule="evenodd" clip-rule="evenodd" d="M64.0307 25.7074C70.9016 25.7074 76.4715 20.0844 76.4715 13.148L88.5943 13.1479H89.4962V13.6737L112.559 27.1157L100.674 47.8972L89.4962 41.3822V74.4509H38.565V40.8565L26.4855 47.8972L14.6007 27.1157L38.565 13.1479L51.5899 13.148C51.5899 20.0844 57.1599 25.7074 64.0307 25.7074Z"></path>
    </mask>
    <path d="M76.4715 13.148L76.4715 10.148L73.4715 10.148V13.148H76.4715ZM88.5943 13.1479V10.1479H88.5943L88.5943 13.1479ZM89.4962 13.1479H92.4962V10.1479H89.4962V13.1479ZM89.4962 13.6737H86.4962V15.3975L87.9855 16.2655L89.4962 13.6737ZM112.559 27.1157L115.163 28.6051L116.64 26.0222L114.069 24.5239L112.559 27.1157ZM100.674 47.8972L99.1631 50.4891L101.776 52.0122L103.278 49.3865L100.674 47.8972ZM89.4962 41.3822L91.0069 38.7904L86.4962 36.1613V41.3822H89.4962ZM89.4962 74.4509V77.4509H92.4962V74.4509H89.4962ZM38.565 74.4509H35.565V77.4509H38.565V74.4509ZM38.565 40.8565H41.565V35.6356L37.0543 38.2647L38.565 40.8565ZM26.4855 47.8972L23.8813 49.3865L25.3829 52.0122L27.9962 50.4891L26.4855 47.8972ZM14.6007 27.1157L13.09 24.5239L10.5193 26.0222L11.9965 28.6051L14.6007 27.1157ZM38.565 13.1479L38.565 10.1479L37.7545 10.1479L37.0543 10.5561L38.565 13.1479ZM51.5899 13.148H54.5899V10.148L51.5899 10.148L51.5899 13.148ZM73.4715 13.148C73.4715 18.4544 69.2179 22.7074 64.0307 22.7074V28.7074C72.5852 28.7074 79.4715 21.7143 79.4715 13.148H73.4715ZM76.4715 16.148L88.5943 16.1479L88.5943 10.1479L76.4715 10.148L76.4715 16.148ZM88.5943 16.1479H89.4962V10.1479H88.5943V16.1479ZM86.4962 13.1479V13.6737H92.4962V13.1479H86.4962ZM87.9855 16.2655L111.048 29.7076L114.069 24.5239L91.0069 11.0818L87.9855 16.2655ZM109.954 25.6264L98.0696 46.4078L103.278 49.3865L115.163 28.6051L109.954 25.6264ZM102.185 45.3053L91.0069 38.7904L87.9855 43.9741L99.1631 50.4891L102.185 45.3053ZM86.4962 41.3822V74.4509H92.4962V41.3822H86.4962ZM89.4962 71.4509H38.565V77.4509H89.4962V71.4509ZM41.565 74.4509V40.8565H35.565V74.4509H41.565ZM37.0543 38.2647L24.9748 45.3053L27.9962 50.4891L40.0757 43.4484L37.0543 38.2647ZM29.0897 46.4078L17.2049 25.6264L11.9965 28.6051L23.8813 49.3865L29.0897 46.4078ZM16.1114 29.7076L40.0757 15.7398L37.0543 10.5561L13.09 24.5239L16.1114 29.7076ZM38.565 16.1479L51.5899 16.148L51.5899 10.148L38.565 10.1479L38.565 16.1479ZM64.0307 22.7074C58.8435 22.7074 54.5899 18.4544 54.5899 13.148H48.5899C48.5899 21.7143 55.4762 28.7074 64.0307 28.7074V22.7074Z" fill="black" mask="url(#path-4-inside-1_226_3368)"></path>
    <path d="M38.42 106.23V101.73H56.8043V106.23" stroke="black" stroke-width="3"></path>
    <path d="M72.7003 106.23V101.73H91.0846V106.23" stroke="black" stroke-width="3"></path>
    <path d="M47.4841 101.168V92.1694" stroke="black" stroke-width="3"></path>
    <path d="M64.8523 71.9629L64.8523 92.1694" stroke="black" stroke-width="3"></path>
    <path d="M93.4495 92.1694L37.5177 92.1694" stroke="black" stroke-width="3"></path>
    <path d="M81.8924 101.168V92.1694" stroke="black" stroke-width="3"></path>
  </symbol>
  <symbol fill="none" xmlns="http://www.w3.org/2000/svg" viewBox="0 0 121 121" id="possibility4">
    <path d="M90.2071 51.8884C92.0327 50.0629 97.0139 47.5071 102.334 51.8884C107.654 56.2698 113.418 52.1491 115.635 49.5411" stroke="black" stroke-width="3"></path>
    <path d="M90.2071 59.4868C92.0327 57.6613 97.0139 55.1055 102.334 59.4868C107.654 63.8682 113.418 59.7475 115.635 57.1395" stroke="black" stroke-width="3"></path>
    <path d="M90.2071 44.2904C92.0327 42.4649 97.0139 39.9091 102.334 44.2904C107.654 48.6718 113.418 44.5511 115.635 41.9431" stroke="black" stroke-width="3"></path>
    <mask id="path-4-inside-1_226_3369" fill="white">
      <path fill-rule="evenodd" clip-rule="evenodd" d="M23.1786 32.7467C13.4601 32.7467 5.58163 40.6252 5.58163 50.3437C5.58163 60.0623 13.4601 67.9407 23.1787 67.9407H56.6742L76.0179 80.6558C77.3479 81.53 79.1165 80.576 79.1165 78.9845V62.3813C83.8915 60.1715 87.2041 55.3379 87.2041 49.7305C87.2041 44.1232 83.8915 39.2895 79.1165 37.0797V20.6474C79.1165 19.0221 77.2806 18.0755 75.9565 19.0182L56.6742 32.7467H23.1786Z"></path>
    </mask>
    <path d="M56.6742 67.9407L58.3221 65.4338L57.5719 64.9407H56.6742V67.9407ZM76.0179 80.6558L77.6658 78.1489H77.6658L76.0179 80.6558ZM79.1165 62.3813L77.8565 59.6588L76.1165 60.464V62.3813H79.1165ZM79.1165 37.0797H76.1165V38.997L77.8565 39.8023L79.1165 37.0797ZM75.9565 19.0182L74.2165 16.5743V16.5743L75.9565 19.0182ZM56.6742 32.7467V35.7467H57.6331L58.4142 35.1906L56.6742 32.7467ZM8.58163 50.3437C8.58163 42.282 15.1169 35.7467 23.1786 35.7467V29.7467C11.8032 29.7467 2.58163 38.9683 2.58163 50.3437H8.58163ZM23.1787 64.9407C15.117 64.9407 8.58163 58.4054 8.58163 50.3437H2.58163C2.58163 61.7191 11.8032 70.9407 23.1787 70.9407V64.9407ZM56.6742 64.9407H23.1787V70.9407H56.6742V64.9407ZM77.6658 78.1489L58.3221 65.4338L55.0264 70.4476L74.3701 83.1627L77.6658 78.1489ZM76.1165 78.9845C76.1165 78.1888 77.0008 77.7118 77.6658 78.1489L74.3701 83.1627C77.6949 85.3482 82.1165 82.9633 82.1165 78.9845H76.1165ZM76.1165 62.3813V78.9845H82.1165V62.3813H76.1165ZM84.2041 49.7305C84.2041 54.1259 81.6101 57.9216 77.8565 59.6588L80.3765 65.1039C86.1729 62.4214 90.2041 56.5499 90.2041 49.7305H84.2041ZM77.8565 39.8023C81.6101 41.5394 84.2041 45.3351 84.2041 49.7305H90.2041C90.2041 42.9112 86.1729 37.0396 80.3765 34.3571L77.8565 39.8023ZM76.1165 20.6474V37.0797H82.1165V20.6474H76.1165ZM77.6965 21.4621C77.0345 21.9334 76.1165 21.4601 76.1165 20.6474H82.1165C82.1165 16.5841 77.5266 14.2176 74.2165 16.5743L77.6965 21.4621ZM58.4142 35.1906L77.6965 21.4621L74.2165 16.5743L54.9342 30.3029L58.4142 35.1906ZM23.1786 35.7467H56.6742V29.7467H23.1786V35.7467Z" fill="black" mask="url(#path-4-inside-1_226_3369)"></path>
    <path d="M35.0078 66.6107L54.2401 91.6748C57.3804 95.7673 54.4626 101.684 49.3041 101.684V101.684C47.3187 101.684 45.4526 100.736 44.2811 99.1334L20.5116 66.6107" stroke="black" stroke-width="3"></path>
    <line x1="34.6331" y1="33.5456" x2="34.6323" y2="65.2799" stroke="black" stroke-width="3"></line>
    <line x1="77.619" y1="37.5034" x2="77.619" y2="62.1284" stroke="black" stroke-width="3"></line>
  </symbol>
  <symbol fill="none" xmlns="http://www.w3.org/2000/svg" viewBox="0 0 140 140" id="advantage1">
    <path d="M15.4564 71.6222C15.4564 41.4986 39.8764 17.0787 70 17.0787C100.124 17.0787 124.544 41.4987 124.544 71.6223V122.714H15.4564V71.6222Z" stroke="white" stroke-width="3"></path>
    <path d="M25.2733 82.2376C25.2733 57.5358 45.2981 37.5109 70 37.5109C94.7019 37.5109 114.727 57.5358 114.727 82.2376V123.111H25.2733V82.2376Z" stroke="white" stroke-width="3"></path>
    <path d="M35.1156 89.7715C35.1156 70.5053 50.7339 54.8871 70 54.8871C89.2661 54.8871 104.884 70.5053 104.884 89.7715V122.714H35.1156V89.7715Z" stroke="white" stroke-width="3"></path>
    <path d="M69.1063 115.233L69.1063 64.6592" stroke="white" stroke-width="3"></path>
    <path d="M57.296 75.6384L69.1063 64.6592L80.9166 75.6384" stroke="white" stroke-width="3"></path>
    <path d="M80.9166 105.505L69.1063 116.484L57.296 105.505" stroke="white" stroke-width="3"></path>
  </symbol>
  <symbol fill="none" xmlns="http://www.w3.org/2000/svg" viewBox="0 0 141 140" id="advantage2">
    <mask id="path-1-inside-1_102_2394" fill="white">
      <path fill-rule="evenodd" clip-rule="evenodd" d="M95.5348 74.458C89.6866 88.3574 79.6616 100.7 68.2765 100.7C56.8913 100.7 46.8663 88.3574 41.0181 74.458C36.0522 72.569 32.341 65.3197 32.341 60.6135C32.341 57.837 33.6327 55.3284 35.7117 53.5355C35.6419 52.5421 35.6063 51.5726 35.6063 50.6321C35.6063 31.5635 50.2332 16.1052 68.2765 16.1052C86.3197 16.1052 100.947 31.5635 100.947 50.6321C100.947 51.5726 100.911 52.5421 100.841 53.5355C102.92 55.3284 104.212 57.837 104.212 60.6135C104.212 65.3197 100.501 72.569 95.5348 74.458Z"></path>
    </mask>
    <path d="M95.5348 74.458L94.4682 71.654L93.2677 72.1107L92.7696 73.2945L95.5348 74.458ZM41.0181 74.458L43.7833 73.2945L43.2852 72.1107L42.0847 71.654L41.0181 74.458ZM35.7117 53.5355L37.6709 55.8074L38.8097 54.8253L38.7043 53.3252L35.7117 53.5355ZM100.841 53.5355L97.8486 53.3252L97.7432 54.8253L98.882 55.8074L100.841 53.5355ZM68.2765 103.7C75.0966 103.7 81.1773 100.011 86.1393 94.8758C91.1254 89.7158 95.2754 82.81 98.3 75.6215L92.7696 73.2945C89.946 80.0054 86.1594 86.2205 81.8246 90.7065C77.4658 95.2174 72.8414 97.6997 68.2765 97.6997V103.7ZM38.2529 75.6215C41.2775 82.81 45.4275 89.7158 50.4136 94.8758C55.3756 100.011 61.4563 103.7 68.2765 103.7V97.6997C63.7115 97.6997 59.0871 95.2174 54.7283 90.7065C50.3935 86.2205 46.6069 80.0054 43.7833 73.2945L38.2529 75.6215ZM29.341 60.6135C29.341 63.6381 30.4906 67.1491 32.2305 70.1115C33.9584 73.0537 36.5793 75.9792 39.9514 77.262L42.0847 71.654C40.491 71.0478 38.7733 69.4041 37.4042 67.0729C36.0469 64.7619 35.341 62.2951 35.341 60.6135H29.341ZM33.7525 51.2636C31.0915 53.5584 29.341 56.8654 29.341 60.6135H35.341C35.341 58.8086 36.1739 57.0984 37.6709 55.8074L33.7525 51.2636ZM32.6063 50.6321C32.6063 51.6479 32.6447 52.6878 32.7191 53.7458L38.7043 53.3252C38.639 52.3965 38.6063 51.4973 38.6063 50.6321H32.6063ZM68.2765 13.1052C48.4223 13.1052 32.6063 30.065 32.6063 50.6321H38.6063C38.6063 33.0619 52.0442 19.1052 68.2765 19.1052V13.1052ZM103.947 50.6321C103.947 30.065 88.1306 13.1052 68.2765 13.1052V19.1052C84.5087 19.1052 97.9466 33.0619 97.9466 50.6321H103.947ZM103.834 53.7458C103.908 52.6878 103.947 51.6479 103.947 50.6321H97.9466C97.9466 51.4973 97.9139 52.3965 97.8486 53.3252L103.834 53.7458ZM98.882 55.8074C100.379 57.0984 101.212 58.8087 101.212 60.6135H107.212C107.212 56.8654 105.461 53.5584 102.8 51.2636L98.882 55.8074ZM101.212 60.6135C101.212 62.2951 100.506 64.7619 99.1487 67.0729C97.7796 69.4041 96.0619 71.0478 94.4682 71.654L96.6015 77.262C99.9736 75.9792 102.594 73.0537 104.322 70.1115C106.062 67.1491 107.212 63.6381 107.212 60.6135H101.212Z" fill="white" mask="url(#path-1-inside-1_102_2394)"></path>
    <path d="M94.622 63.5113L92.9687 57.0815C92.7386 56.1866 92.6222 55.2662 92.6222 54.3422V42.2387C92.6222 36.1636 87.6973 31.2387 81.6222 31.2387H54.8039C48.7288 31.2387 43.8039 36.1641 43.8039 42.2393C43.8039 46.6511 43.8039 50.5155 43.8039 53.2811C43.8039 55.3938 43.1955 57.4616 42.0514 59.2377L39.2985 63.5113" stroke="white" stroke-width="3"></path>
    <path d="M72.036 75.4973H64.3619" stroke="white" stroke-width="3"></path>
    <path d="M79.459 81.0565L69.8232 82.5015C68.7463 82.663 67.6515 82.6637 66.5744 82.5036L56.8401 81.0565" stroke="white" stroke-width="3"></path>
    <path d="M72.036 88.7138H64.3619" stroke="white" stroke-width="3"></path>
    <path d="M48.3499 53.0407L53.3656 51.9023C54.9616 51.5401 56.6182 51.5385 58.2148 51.8977L63.2948 53.0407" stroke="white" stroke-width="3"></path>
    <path d="M73.0127 53.0407L78.0284 51.9023C79.6244 51.5401 81.281 51.5385 82.8777 51.8977L87.9576 53.0407" stroke="white" stroke-width="3"></path>
    <path d="M67.8647 113.064L82.3602 122.017C84.2915 118.303 87.2324 112.647 89.5997 108.094C91.77 103.921 96.787 102.125 101.114 103.97L122.436 113.064" stroke="white" stroke-width="3"></path>
    <path d="M67.8647 113.064L53.3691 122.017C51.4378 118.303 48.497 112.647 46.1296 108.094C43.9593 103.921 38.9423 102.125 34.6153 103.97L13.2933 113.064" stroke="white" stroke-width="3"></path>
    <path d="M48.3499 85.3515V102.405L68.3879 113.064L91.4102 99.847" stroke="white" stroke-width="3"></path>
    <path d="M48.6182 35.0301C50.7056 31.7831 57.246 24.9412 66.7087 23.5496C78.5371 21.8101 88.2782 21.1143 89.6698 13.8085" stroke="white" stroke-width="3"></path>
  </symbol>

  <symbol fill="" xmlns="http://www.w3.org/2000/svg" viewBox="0 0 63 16" id="arrow_prev">
    <path d="M61.2642 8.92387H62.2642V6.92387H61.2642V8.92387ZM0.557049 7.21677C0.166527 7.60729 0.166527 8.24046 0.557049 8.63098L6.92101 14.9949C7.31153 15.3855 7.9447 15.3855 8.33522 14.9949C8.72575 14.6044 8.72575 13.9713 8.33522 13.5807L2.67837 7.92387L8.33522 2.26702C8.72575 1.8765 8.72575 1.24333 8.33522 0.852806C7.9447 0.462282 7.31153 0.462282 6.92101 0.852806L0.557049 7.21677ZM61.2642 6.92387L1.26416 6.92387V8.92387L61.2642 8.92387V6.92387Z" fill=""></path>
  </symbol>

  <symbol fill="" xmlns="http://www.w3.org/2000/svg" viewBox="0 0 645 23" id="arrow_next">
    <path d="M1.60836 10.2864L0.10836 10.2864L0.10836 13.2864L1.60836 13.2864L1.60836 10.2864ZM644.061 12.8469C644.646 12.2612 644.646 11.3114 644.061 10.7256L634.515 1.17969C633.929 0.593898 632.979 0.593898 632.393 1.17969C631.808 1.76547 631.808 2.71522 632.393 3.30101L640.879 11.7863L632.393 20.2716C631.808 20.8574 631.808 21.8071 632.393 22.3929C632.979 22.9787 633.929 22.9787 634.515 22.3929L644.061 12.8469ZM1.60836 13.2864L643 13.2863L643 10.2863L1.60836 10.2864L1.60836 13.2864Z" fill=""></path>
  </symbol>
  
  <symbol fill="none" xmlns="http://www.w3.org/2000/svg" viewBox="0 0 70 42" id="Union">
    <path fill-rule="evenodd" clip-rule="evenodd" d="M6.58463 0.643066H33.0749L27.2806 27.1338H27.2799L12.3006 41.9251H0.679688L15.659 27.1338H0.790317L6.58463 0.643066ZM42.6115 0.643066H69.1017L63.3074 27.1338H63.3068L48.3274 41.9251H36.7065L51.6859 27.1338H36.8172L42.6115 0.643066Z" fill="#E0013F"></path>
  </symbol>

  <symbol fill="none" xmlns="http://www.w3.org/2000/svg" viewBox="0 0 60 60" id="close">
    <rect x="49.7991" y="52.6274" width="60" height="4" transform="rotate(-135 49.7991 52.6274)" fill="white"></rect>
    <rect x="7.37256" y="49.7988" width="60" height="4" transform="rotate(-45 7.37256 49.7988)" fill="white"></rect>
  </symbol>
</svg>