<svg width="141" height="140" viewBox="0 0 141 140" fill="none" xmlns="http://www.w3.org/2000/svg">
<mask id="path-1-inside-1_102_2394" fill="white">
<path fill-rule="evenodd" clip-rule="evenodd" d="M95.5348 74.458C89.6866 88.3574 79.6616 100.7 68.2765 100.7C56.8913 100.7 46.8663 88.3574 41.0181 74.458C36.0522 72.569 32.341 65.3197 32.341 60.6135C32.341 57.837 33.6327 55.3284 35.7117 53.5355C35.6419 52.5421 35.6063 51.5726 35.6063 50.6321C35.6063 31.5635 50.2332 16.1052 68.2765 16.1052C86.3197 16.1052 100.947 31.5635 100.947 50.6321C100.947 51.5726 100.911 52.5421 100.841 53.5355C102.92 55.3284 104.212 57.837 104.212 60.6135C104.212 65.3197 100.501 72.569 95.5348 74.458Z"/>
</mask>
<path d="M95.5348 74.458L94.4682 71.654L93.2677 72.1107L92.7696 73.2945L95.5348 74.458ZM41.0181 74.458L43.7833 73.2945L43.2852 72.1107L42.0847 71.654L41.0181 74.458ZM35.7117 53.5355L37.6709 55.8074L38.8097 54.8253L38.7043 53.3252L35.7117 53.5355ZM100.841 53.5355L97.8486 53.3252L97.7432 54.8253L98.882 55.8074L100.841 53.5355ZM68.2765 103.7C75.0966 103.7 81.1773 100.011 86.1393 94.8758C91.1254 89.7158 95.2754 82.81 98.3 75.6215L92.7696 73.2945C89.946 80.0054 86.1594 86.2205 81.8246 90.7065C77.4658 95.2174 72.8414 97.6997 68.2765 97.6997V103.7ZM38.2529 75.6215C41.2775 82.81 45.4275 89.7158 50.4136 94.8758C55.3756 100.011 61.4563 103.7 68.2765 103.7V97.6997C63.7115 97.6997 59.0871 95.2174 54.7283 90.7065C50.3935 86.2205 46.6069 80.0054 43.7833 73.2945L38.2529 75.6215ZM29.341 60.6135C29.341 63.6381 30.4906 67.1491 32.2305 70.1115C33.9584 73.0537 36.5793 75.9792 39.9514 77.262L42.0847 71.654C40.491 71.0478 38.7733 69.4041 37.4042 67.0729C36.0469 64.7619 35.341 62.2951 35.341 60.6135H29.341ZM33.7525 51.2636C31.0915 53.5584 29.341 56.8654 29.341 60.6135H35.341C35.341 58.8086 36.1739 57.0984 37.6709 55.8074L33.7525 51.2636ZM32.6063 50.6321C32.6063 51.6479 32.6447 52.6878 32.7191 53.7458L38.7043 53.3252C38.639 52.3965 38.6063 51.4973 38.6063 50.6321H32.6063ZM68.2765 13.1052C48.4223 13.1052 32.6063 30.065 32.6063 50.6321H38.6063C38.6063 33.0619 52.0442 19.1052 68.2765 19.1052V13.1052ZM103.947 50.6321C103.947 30.065 88.1306 13.1052 68.2765 13.1052V19.1052C84.5087 19.1052 97.9466 33.0619 97.9466 50.6321H103.947ZM103.834 53.7458C103.908 52.6878 103.947 51.6479 103.947 50.6321H97.9466C97.9466 51.4973 97.9139 52.3965 97.8486 53.3252L103.834 53.7458ZM98.882 55.8074C100.379 57.0984 101.212 58.8087 101.212 60.6135H107.212C107.212 56.8654 105.461 53.5584 102.8 51.2636L98.882 55.8074ZM101.212 60.6135C101.212 62.2951 100.506 64.7619 99.1487 67.0729C97.7796 69.4041 96.0619 71.0478 94.4682 71.654L96.6015 77.262C99.9736 75.9792 102.594 73.0537 104.322 70.1115C106.062 67.1491 107.212 63.6381 107.212 60.6135H101.212Z" fill="white" mask="url(#path-1-inside-1_102_2394)"/>
<path d="M94.622 63.5113L92.9687 57.0815C92.7386 56.1866 92.6222 55.2662 92.6222 54.3422V42.2387C92.6222 36.1636 87.6973 31.2387 81.6222 31.2387H54.8039C48.7288 31.2387 43.8039 36.1641 43.8039 42.2393C43.8039 46.6511 43.8039 50.5155 43.8039 53.2811C43.8039 55.3938 43.1955 57.4616 42.0514 59.2377L39.2985 63.5113" stroke="white" stroke-width="3"/>
<path d="M72.036 75.4973H64.3619" stroke="white" stroke-width="3"/>
<path d="M79.459 81.0565L69.8232 82.5015C68.7463 82.663 67.6515 82.6637 66.5744 82.5036L56.8401 81.0565" stroke="white" stroke-width="3"/>
<path d="M72.036 88.7138H64.3619" stroke="white" stroke-width="3"/>
<path d="M48.3499 53.0407L53.3656 51.9023C54.9616 51.5401 56.6182 51.5385 58.2148 51.8977L63.2948 53.0407" stroke="white" stroke-width="3"/>
<path d="M73.0127 53.0407L78.0284 51.9023C79.6244 51.5401 81.281 51.5385 82.8777 51.8977L87.9576 53.0407" stroke="white" stroke-width="3"/>
<path d="M67.8647 113.064L82.3602 122.017C84.2915 118.303 87.2324 112.647 89.5997 108.094C91.77 103.921 96.787 102.125 101.114 103.97L122.436 113.064" stroke="white" stroke-width="3"/>
<path d="M67.8647 113.064L53.3691 122.017C51.4378 118.303 48.497 112.647 46.1296 108.094C43.9593 103.921 38.9423 102.125 34.6153 103.97L13.2933 113.064" stroke="white" stroke-width="3"/>
<path d="M48.3499 85.3515V102.405L68.3879 113.064L91.4102 99.847" stroke="white" stroke-width="3"/>
<path d="M48.6182 35.0301C50.7056 31.7831 57.246 24.9412 66.7087 23.5496C78.5371 21.8101 88.2782 21.1143 89.6698 13.8085" stroke="white" stroke-width="3"/>
</svg>
