<svg width="141" height="140" viewBox="0 0 141 140" fill="none" xmlns="http://www.w3.org/2000/svg">
<path d="M111.183 111.507C111.183 111.775 111.041 112.218 110.366 112.806C109.696 113.39 108.638 113.985 107.201 114.514C104.34 115.568 100.287 116.25 95.737 116.25C91.1871 116.25 87.1341 115.568 84.2727 114.514C82.8361 113.985 81.7785 113.39 81.1076 112.806C80.4333 112.218 80.2907 111.775 80.2907 111.507C80.2907 111.238 80.4333 110.795 81.1076 110.207C81.7785 109.623 82.8361 109.029 84.2727 108.499C87.1341 107.445 91.1871 106.763 95.737 106.763C100.287 106.763 104.34 107.445 107.201 108.499C108.638 109.029 109.696 109.623 110.366 110.207C111.041 110.795 111.183 111.238 111.183 111.507Z" stroke="white" stroke-width="3"/>
<mask id="path-2-inside-1_102_2395" fill="white">
<path fill-rule="evenodd" clip-rule="evenodd" d="M113.167 118.997C113.167 118.994 113.167 118.992 113.167 118.99C113.167 118.987 113.167 118.985 113.167 118.982V111.658C113.167 111.655 113.167 111.653 113.167 111.65C113.167 111.648 113.167 111.645 113.167 111.643V111.219H113.128C112.526 107.893 105.012 105.263 95.8307 105.263C86.6495 105.263 79.1352 107.893 78.5334 111.219H78.4945V111.65V118.99V119.421H78.5334C79.1352 122.747 86.6495 125.377 95.8307 125.377C105.012 125.377 112.526 122.747 113.128 119.421H113.167V118.997Z"/>
</mask>
<path d="M113.167 118.997L110.167 118.988V118.997H113.167ZM113.167 118.982H110.167L110.167 118.991L113.167 118.982ZM113.167 111.658L110.167 111.648V111.658H113.167ZM113.167 111.643H110.167L110.167 111.652L113.167 111.643ZM113.167 111.219H116.167V108.219H113.167V111.219ZM113.128 111.219L110.176 111.753L110.622 114.219H113.128V111.219ZM78.5334 111.219V114.219H81.0393L81.4855 111.753L78.5334 111.219ZM78.4945 111.219V108.219H75.4945V111.219H78.4945ZM78.4945 119.421H75.4945V122.421H78.4945V119.421ZM78.5334 119.421L81.4855 118.887L81.0393 116.421H78.5334V119.421ZM113.128 119.421V116.421H110.622L110.176 118.887L113.128 119.421ZM113.167 119.421V122.421H116.167V119.421H113.167ZM116.167 119.006C116.167 119.001 116.167 118.995 116.167 118.99H110.167C110.167 118.989 110.167 118.988 110.167 118.988L116.167 119.006ZM116.167 118.99C116.167 118.984 116.167 118.978 116.167 118.973L110.167 118.991C110.167 118.991 110.167 118.99 110.167 118.99H116.167ZM110.167 111.658V118.982H116.167V111.658H110.167ZM116.167 111.667C116.167 111.661 116.167 111.656 116.167 111.65H110.167C110.167 111.65 110.167 111.649 110.167 111.648L116.167 111.667ZM116.167 111.65C116.167 111.645 116.167 111.639 116.167 111.634L110.167 111.652C110.167 111.651 110.167 111.651 110.167 111.65H116.167ZM110.167 111.219V111.643H116.167V111.219H110.167ZM113.128 114.219H113.167V108.219H113.128V114.219ZM116.08 110.685C115.744 108.83 114.528 107.454 113.287 106.504C112.016 105.53 110.413 104.759 108.678 104.159C105.193 102.953 100.675 102.263 95.8307 102.263V108.263C100.168 108.263 103.998 108.888 106.716 109.829C108.082 110.301 109.044 110.812 109.638 111.267C110.262 111.744 110.211 111.945 110.176 111.753L116.08 110.685ZM95.8307 102.263C90.9866 102.263 86.4687 102.953 82.9838 104.159C81.2483 104.759 79.6458 105.53 78.3746 106.504C77.1332 107.454 75.917 108.83 75.5813 110.685L81.4855 111.753C81.4507 111.945 81.3995 111.744 82.0231 111.267C82.617 110.812 83.5798 110.301 84.9458 109.829C87.6637 108.888 91.4936 108.263 95.8307 108.263V102.263ZM78.4945 114.219H78.5334V108.219H78.4945V114.219ZM81.4945 111.65V111.219H75.4945V111.65H81.4945ZM81.4945 118.99V111.65H75.4945V118.99H81.4945ZM81.4945 119.421V118.99H75.4945V119.421H81.4945ZM78.5334 116.421H78.4945V122.421H78.5334V116.421ZM75.5813 119.955C75.917 121.81 77.1332 123.185 78.3747 124.136C79.6458 125.11 81.2483 125.881 82.9838 126.481C86.4687 127.687 90.9866 128.377 95.8307 128.377V122.377C91.4936 122.377 87.6637 121.751 84.9458 120.811C83.5798 120.338 82.617 119.828 82.0231 119.373C81.3995 118.895 81.4507 118.695 81.4855 118.887L75.5813 119.955ZM95.8307 128.377C100.675 128.377 105.193 127.687 108.678 126.481C110.413 125.881 112.016 125.11 113.287 124.136C114.528 123.185 115.744 121.81 116.08 119.955L110.176 118.887C110.211 118.695 110.262 118.895 109.638 119.373C109.044 119.828 108.082 120.338 106.716 120.811C103.998 121.751 100.168 122.377 95.8307 122.377V128.377ZM113.167 116.421H113.128V122.421H113.167V116.421ZM110.167 118.997V119.421H116.167V118.997H110.167Z" fill="white" mask="url(#path-2-inside-1_102_2395)"/>
<path d="M106.381 84.8804L122.849 101.313C124.11 102.57 126.262 101.678 126.262 99.8968V37.3309C126.262 31.808 121.785 27.3309 116.262 27.3309H38.2387C32.7158 27.3309 28.2387 31.808 28.2387 37.3309V100.218C28.2387 101.951 26.1848 102.864 24.8984 101.702L9.47775 87.7807C8.11832 86.5535 8.98649 84.2962 10.818 84.2962H104.968C105.498 84.2962 106.006 84.5063 106.381 84.8804Z" stroke="white" stroke-width="3"/>
<path d="M45.4926 124.618C50.4542 123.201 56.7859 113.816 60.4334 107.385C61.1718 106.083 60.2128 104.508 58.7161 104.508H56.835C56.1891 104.508 55.5776 104.832 55.1898 105.349C43.4962 120.925 30.8189 115.424 13.2764 112.143C12.0597 111.915 10.9434 112.856 10.9434 114.094V120.74C10.9434 121.531 11.4028 122.247 12.1594 122.475C18.6595 124.438 38.7744 126.538 45.4926 124.618Z" stroke="white" stroke-width="3"/>
<path d="M56.837 104.508L125.274 15.7934C125.931 14.9415 127.144 14.7622 128.02 15.3875L128.354 15.6266C129.283 16.2902 129.469 17.5956 128.763 18.4922L60.9623 104.508" stroke="white" stroke-width="3"/>
<path d="M8.72531 84.606C12.9384 82.1277 21.3647 73.751 21.3647 60.0707C21.3647 51.3623 21.3647 39.9827 21.3647 30.6879C21.3647 23.5082 27.185 17.6915 34.3647 17.6915H106.686C110.134 17.6915 113.441 19.0611 115.879 21.4991L118.92 24.5406C119.295 24.9157 119.506 25.4227 119.506 25.9531C119.506 34.2619 119.506 51.4661 119.506 60.0707C119.506 68.9718 111.08 80.1364 106.867 84.606" stroke="white" stroke-width="3"/>
<path d="M67.8807 17.6489L78.4945 28.2627" stroke="white" stroke-width="3"/>
</svg>
