<svg width="120" height="120" viewBox="0 0 120 120" fill="none" xmlns="http://www.w3.org/2000/svg">
<path d="M73.7271 62.3784C72.3307 60.982 70.3757 57.1718 73.7271 53.1023C77.0784 49.0327 73.9264 44.6241 71.9316 42.9284" stroke="black" stroke-width="3"/>
<path d="M79.539 62.3784C78.1426 60.982 76.1877 57.1718 79.539 53.1023C82.8904 49.0327 79.7384 44.6241 77.7435 42.9284" stroke="black" stroke-width="3"/>
<path d="M67.9153 62.3784C66.5189 60.982 64.564 57.1718 67.9153 53.1023C71.2667 49.0328 68.1147 44.6241 66.1198 42.9285" stroke="black" stroke-width="3"/>
<path d="M99.9242 80.1773H23.9964L17.3526 93.4647C17.8271 95.3629 21.149 99.1593 30.64 99.1593H87.1113C100.399 99.1593 104.986 95.3629 105.619 93.4647L99.9242 80.1773Z" stroke="black" stroke-width="3"/>
<path d="M20.2002 97.261C20.6747 100.108 22.9526 105.803 28.2675 105.803C34.9112 105.803 81.8915 105.803 89.9589 105.803C98.0262 105.803 104.512 98.2101 105.144 94.4137" stroke="black" stroke-width="3"/>
<path d="M46.0653 80.1488C46.0653 80.1488 39.6047 84.4373 39.6046 88.2337C39.6046 92.9792 48.6053 92.8034 78.9922 94.4027C86.2053 94.7823 84.0054 88.2337 78.9922 80.1487" stroke="black" stroke-width="3"/>
<path d="M100.874 79.701H107.043C107.043 76.3791 107.043 68.8813 107.043 65.4645C107.043 61.1936 103.721 52.1771 91.3829 52.1771C83.3155 52.1771 62.5327 52.1771 62.5327 35.4259C62.5327 27.8825 62.5326 16.3946 62.5326 12.3688C60.5807 12.3688 56.6769 13.5886 56.6769 18.4684C56.6769 23.3481 56.6769 29.9357 56.6769 32.6196" stroke="black" stroke-width="3"/>
<path d="M24.2463 80.4267C17.4366 74.8677 14.9739 62.1461 18.3019 54.5517C21.8837 46.3779 21.1492 36.0443 21.1492 36.0443V13.7405C23.3637 13.2659 27.7928 14.6896 27.7928 24.1805C27.7928 33.6715 27.7928 33.5133 27.7928 32.2478C32.0638 32.2478 41.6497 32.2478 45.8257 32.2478C51.0457 32.2478 54.3676 35.0951 54.3676 40.7897C54.3676 46.4843 56.7403 54.5517 70.0277 54.5517H81.0097" stroke="black" stroke-width="3"/>
<line x1="9.78918" y1="110.208" x2="9.78918" y2="117.549" stroke="black" stroke-width="3"/>
<line x1="9.78925" y1="99.1083" x2="9.78925" y2="106.449" stroke="black" stroke-width="3"/>
<line x1="18.9696" y1="108.232" x2="11.6293" y2="108.232" stroke="black" stroke-width="3"/>
<line x1="8.07601" y1="108.232" x2="0.735747" y2="108.232" stroke="black" stroke-width="3"/>
</svg>
