<svg width="121" height="120" viewBox="0 0 121 120" fill="none" xmlns="http://www.w3.org/2000/svg">
<mask id="path-1-inside-1_226_3337" fill="white">
<path fill-rule="evenodd" clip-rule="evenodd" d="M94.5372 41.468H30.8797V46.8815H25.755C17.5435 46.8815 10.8867 53.5383 10.8867 61.7498C10.8867 69.9613 17.5435 76.6181 25.755 76.6181H33.2573C38.0177 88.1995 49.4107 96.3543 62.7085 96.3543C80.287 96.3543 94.5372 82.1041 94.5372 64.5255V41.468ZM30.8797 56.1275V64.5255C30.8797 65.485 30.9222 66.4345 31.0053 67.3723L26.867 67.3723C23.7618 67.3723 21.2446 64.8551 21.2446 61.7499C21.2446 58.6448 23.7618 56.1275 26.867 56.1275H30.8797Z"/>
</mask>
<path d="M30.8797 41.468V38.468H27.8797V41.468H30.8797ZM94.5372 41.468H97.5372V38.468H94.5372V41.468ZM30.8797 46.8815V49.8815H33.8797V46.8815H30.8797ZM10.8867 61.7498H13.8867H10.8867ZM33.2573 76.6181L36.032 75.4775L35.2677 73.6181H33.2573V76.6181ZM30.8797 56.1275H33.8797V53.1275H30.8797V56.1275ZM31.0053 67.3723L31.0053 70.3723L34.283 70.3723L33.9936 67.1074L31.0053 67.3723ZM26.867 67.3723L26.867 64.3723H26.867V67.3723ZM21.2446 61.7499L24.2446 61.7499V61.7499H21.2446ZM30.8797 44.468H94.5372V38.468H30.8797V44.468ZM33.8797 46.8815V41.468H27.8797V46.8815H33.8797ZM30.8797 43.8815H25.755V49.8815H30.8797V43.8815ZM25.755 43.8815C15.8866 43.8815 7.88675 51.8814 7.88675 61.7498H13.8867C13.8867 55.1951 19.2004 49.8815 25.755 49.8815V43.8815ZM7.88675 61.7498C7.88675 71.6182 15.8866 79.6181 25.755 79.6181V73.6181C19.2003 73.6181 13.8867 68.3045 13.8867 61.7498H7.88675ZM25.755 79.6181H33.2573V73.6181H25.755V79.6181ZM62.7085 93.3543C50.6688 93.3543 40.3461 85.9731 36.032 75.4775L30.4825 77.7586C35.6893 90.4259 48.1527 99.3543 62.7085 99.3543V93.3543ZM91.5372 64.5255C91.5372 80.4472 78.6301 93.3543 62.7085 93.3543V99.3543C81.9438 99.3543 97.5372 83.7609 97.5372 64.5255H91.5372ZM91.5372 41.468V64.5255H97.5372V41.468H91.5372ZM33.8797 64.5255V56.1275H27.8797V64.5255H33.8797ZM33.9936 67.1074C33.9183 66.2576 33.8797 65.3964 33.8797 64.5255H27.8797C27.8797 65.5735 27.9261 66.6114 28.017 67.6372L33.9936 67.1074ZM26.867 70.3723L31.0053 70.3723L31.0053 64.3723L26.867 64.3723L26.867 70.3723ZM18.2446 61.7499C18.2446 66.5119 22.1049 70.3723 26.867 70.3723V64.3723C25.4187 64.3723 24.2446 63.1982 24.2446 61.7499L18.2446 61.7499ZM26.867 53.1275C22.1049 53.1275 18.2446 56.9879 18.2446 61.7499H24.2446C24.2446 60.3016 25.4187 59.1275 26.867 59.1275V53.1275ZM30.8797 53.1275H26.867V59.1275H30.8797V53.1275Z" fill="black" mask="url(#path-1-inside-1_226_3337)"/>
<path d="M61.5995 35.7852C59.774 33.9596 57.2182 28.9783 61.5995 23.6581C65.9809 18.3378 61.8602 12.5741 59.2522 10.3574" stroke="black" stroke-width="3"/>
<path d="M69.1979 35.7852C67.3724 33.9596 64.8166 28.9783 69.1979 23.6581C73.5793 18.3378 69.4586 12.5741 66.8506 10.3574" stroke="black" stroke-width="3"/>
<path d="M54.0016 35.7852C52.176 33.9596 49.6202 28.9783 54.0016 23.6581C58.3829 18.3378 54.2622 12.5741 51.6542 10.3574" stroke="black" stroke-width="3"/>
<path d="M15.0036 98.2467C15.0036 97.4843 15.6217 96.8663 16.3841 96.8663H107.211C107.973 96.8663 108.591 97.4843 108.591 98.2467C108.591 98.8562 108.192 99.3935 107.608 99.5688L88.6091 105.276C86.6959 105.851 84.7091 106.143 82.7114 106.143H61.7975H40.8835C38.8859 106.143 36.899 105.851 34.9858 105.276L15.9869 99.5688C15.4033 99.3935 15.0036 98.8562 15.0036 98.2467Z" stroke="black" stroke-width="3"/>
</svg>
