<svg width="140" height="140" viewBox="0 0 140 140" fill="none" xmlns="http://www.w3.org/2000/svg">
<path d="M15.4564 71.6222C15.4564 41.4986 39.8764 17.0787 70 17.0787C100.124 17.0787 124.544 41.4987 124.544 71.6223V122.714H15.4564V71.6222Z" stroke="white" stroke-width="3"/>
<path d="M25.2733 82.2376C25.2733 57.5358 45.2981 37.5109 70 37.5109C94.7019 37.5109 114.727 57.5358 114.727 82.2376V123.111H25.2733V82.2376Z" stroke="white" stroke-width="3"/>
<path d="M35.1156 89.7715C35.1156 70.5053 50.7339 54.8871 70 54.8871C89.2661 54.8871 104.884 70.5053 104.884 89.7715V122.714H35.1156V89.7715Z" stroke="white" stroke-width="3"/>
<path d="M69.1063 115.233L69.1063 64.6592" stroke="white" stroke-width="3"/>
<path d="M57.296 75.6384L69.1063 64.6592L80.9166 75.6384" stroke="white" stroke-width="3"/>
<path d="M80.9166 105.505L69.1063 116.484L57.296 105.505" stroke="white" stroke-width="3"/>
</svg>
