<svg width="141" height="140" viewBox="0 0 141 140" fill="none" xmlns="http://www.w3.org/2000/svg">
<circle cx="28.7213" cy="30.1895" r="13.2675" stroke="white" stroke-width="3"/>
<path d="M28.3024 24.9117V33.2827" stroke="white" stroke-width="3"/>
<path d="M32.4879 11.6577L24.117 11.6577" stroke="white" stroke-width="3"/>
<mask id="path-4-inside-1_102_2396" fill="white">
<path fill-rule="evenodd" clip-rule="evenodd" d="M71.253 50.8202C78.8682 50.8202 85.0416 44.5879 85.0416 36.9H98.4778H99.4775V37.4827L125.039 52.3811L111.866 75.4141L99.4775 68.1933V104.845H43.0283V67.6106L29.64 75.4141L16.4676 52.3811L43.0283 36.9H57.4643C57.4643 44.5879 63.6377 50.8202 71.253 50.8202Z"/>
</mask>
<path d="M85.0416 36.9V33.9H82.0416V36.9H85.0416ZM99.4775 36.9H102.477V33.9H99.4775V36.9ZM99.4775 37.4827H96.4775V39.2065L97.9668 40.0746L99.4775 37.4827ZM125.039 52.3811L127.643 53.8705L129.12 51.2876L126.549 49.7893L125.039 52.3811ZM111.866 75.4141L110.355 78.006L112.969 79.5291L114.47 76.9034L111.866 75.4141ZM99.4775 68.1933L100.988 65.6014L96.4775 62.9723V68.1933H99.4775ZM99.4775 104.845V107.845H102.477V104.845H99.4775ZM43.0283 104.845H40.0283V107.845H43.0283V104.845ZM43.0283 67.6106H46.0283V62.3897L41.5176 65.0188L43.0283 67.6106ZM29.64 75.4141L27.0358 76.9034L28.5374 79.5291L31.1507 78.006L29.64 75.4141ZM16.4676 52.3811L14.9569 49.7893L12.3862 51.2876L13.8634 53.8705L16.4676 52.3811ZM43.0283 36.9V33.9H42.2178L41.5176 34.3082L43.0283 36.9ZM57.4643 36.9H60.4643V33.9H57.4643V36.9ZM82.0416 36.9C82.0416 42.958 77.1846 47.8202 71.253 47.8202V53.8202C80.5519 53.8202 88.0416 46.2179 88.0416 36.9H82.0416ZM85.0416 39.9H98.4778V33.9H85.0416V39.9ZM98.4778 39.9H99.4775V33.9H98.4778V39.9ZM96.4775 36.9V37.4827H102.477V36.9H96.4775ZM97.9668 40.0746L123.528 54.973L126.549 49.7893L100.988 34.8908L97.9668 40.0746ZM122.434 50.8918L109.262 73.9248L114.47 76.9034L127.643 53.8705L122.434 50.8918ZM113.377 72.8222L100.988 65.6014L97.9668 70.7852L110.355 78.006L113.377 72.8222ZM96.4775 68.1933V104.845H102.477V68.1933H96.4775ZM99.4775 101.845H43.0283V107.845H99.4775V101.845ZM46.0283 104.845V67.6106H40.0283V104.845H46.0283ZM41.5176 65.0188L28.1293 72.8222L31.1507 78.006L44.539 70.2025L41.5176 65.0188ZM32.2442 73.9248L19.0718 50.8918L13.8634 53.8705L27.0358 76.9034L32.2442 73.9248ZM17.9783 54.973L44.539 39.4919L41.5176 34.3082L14.9569 49.7893L17.9783 54.973ZM43.0283 39.9H57.4643V33.9H43.0283V39.9ZM71.253 47.8202C65.3213 47.8202 60.4643 42.958 60.4643 36.9H54.4643C54.4643 46.2179 61.9541 53.8202 71.253 53.8202V47.8202Z" fill="white" mask="url(#path-4-inside-1_102_2396)"/>
<path d="M42.8676 124.58V119.593H63.2437V124.58" stroke="white" stroke-width="3"/>
<path d="M80.8624 124.58V119.593H101.239V124.58" stroke="white" stroke-width="3"/>
<path d="M52.9138 118.97V108.996" stroke="white" stroke-width="3"/>
<path d="M91.0505 118.97V108.996" stroke="white" stroke-width="3"/>
</svg>
