<svg width="141" height="140" viewBox="0 0 141 140" fill="none" xmlns="http://www.w3.org/2000/svg">
<circle cx="33.0068" cy="111.744" r="6.2233" stroke="white" stroke-width="3"/>
<rect x="23.4736" y="22.0325" width="19.0665" height="74.42" rx="8.5" stroke="white" stroke-width="3"/>
<line x1="33.5275" y1="87.8414" x2="33.5275" y2="57.5567" stroke="white" stroke-width="3"/>
<circle cx="70.255" cy="87.8414" r="6.2233" stroke="white" stroke-width="3"/>
<path d="M120.04 81.5608C120.04 99.2321 105.714 113.557 88.0431 113.557C70.3718 113.557 56.0464 99.2321 56.0464 81.5608C56.0464 77.2944 58.0068 71.4277 61.1343 64.866C64.2356 58.3593 68.3845 51.3694 72.5542 44.924C76.7205 38.4839 80.8894 32.615 84.0182 28.3546C85.5821 26.2251 86.8848 24.4991 87.7958 23.3066C87.8817 23.1941 87.9642 23.0863 88.0431 22.9834C88.1219 23.0863 88.2044 23.1941 88.2904 23.3066C89.2013 24.4991 90.5041 26.2251 92.0679 28.3546C95.1967 32.615 99.3657 38.4839 103.532 44.924C107.702 51.3694 111.851 58.3593 114.952 64.866C118.079 71.4277 120.04 77.2944 120.04 81.5608Z" stroke="white" stroke-width="3"/>
<line x1="112.31" y1="31.6577" x2="112.31" y2="39.7932" stroke="white" stroke-width="3"/>
<line x1="112.31" y1="20.5325" x2="112.31" y2="28.668" stroke="white" stroke-width="3"/>
<line x1="121.54" y1="30.4819" x2="113.404" y2="30.4819" stroke="white" stroke-width="3"/>
<line x1="110.574" y1="30.4819" x2="102.439" y2="30.4819" stroke="white" stroke-width="3"/>
</svg>
