<svg width="121" height="121" viewBox="0 0 121 121" fill="none" xmlns="http://www.w3.org/2000/svg">
<path d="M8.39981 64.6128C10.2254 62.7873 15.2067 60.2315 20.527 64.6128C25.8472 68.9942 31.6109 64.8735 33.8277 62.2655" stroke="black" stroke-width="3"/>
<path d="M8.39981 72.2112C10.2254 70.3857 15.2067 67.8299 20.527 72.2112C25.8472 76.5926 31.6109 72.4719 33.8277 69.8639" stroke="black" stroke-width="3"/>
<path d="M8.39978 57.0148C10.2254 55.1892 15.2066 52.6335 20.5269 57.0148C25.8472 61.3962 31.6109 57.2755 33.8276 54.6675" stroke="black" stroke-width="3"/>
<mask id="path-4-inside-1_226_3368" fill="white">
<path fill-rule="evenodd" clip-rule="evenodd" d="M64.0307 25.7074C70.9016 25.7074 76.4715 20.0844 76.4715 13.148L88.5943 13.1479H89.4962V13.6737L112.559 27.1157L100.674 47.8972L89.4962 41.3822V74.4509H38.565V40.8565L26.4855 47.8972L14.6007 27.1157L38.565 13.1479L51.5899 13.148C51.5899 20.0844 57.1599 25.7074 64.0307 25.7074Z"/>
</mask>
<path d="M76.4715 13.148L76.4715 10.148L73.4715 10.148V13.148H76.4715ZM88.5943 13.1479V10.1479H88.5943L88.5943 13.1479ZM89.4962 13.1479H92.4962V10.1479H89.4962V13.1479ZM89.4962 13.6737H86.4962V15.3975L87.9855 16.2655L89.4962 13.6737ZM112.559 27.1157L115.163 28.6051L116.64 26.0222L114.069 24.5239L112.559 27.1157ZM100.674 47.8972L99.1631 50.4891L101.776 52.0122L103.278 49.3865L100.674 47.8972ZM89.4962 41.3822L91.0069 38.7904L86.4962 36.1613V41.3822H89.4962ZM89.4962 74.4509V77.4509H92.4962V74.4509H89.4962ZM38.565 74.4509H35.565V77.4509H38.565V74.4509ZM38.565 40.8565H41.565V35.6356L37.0543 38.2647L38.565 40.8565ZM26.4855 47.8972L23.8813 49.3865L25.3829 52.0122L27.9962 50.4891L26.4855 47.8972ZM14.6007 27.1157L13.09 24.5239L10.5193 26.0222L11.9965 28.6051L14.6007 27.1157ZM38.565 13.1479L38.565 10.1479L37.7545 10.1479L37.0543 10.5561L38.565 13.1479ZM51.5899 13.148H54.5899V10.148L51.5899 10.148L51.5899 13.148ZM73.4715 13.148C73.4715 18.4544 69.2179 22.7074 64.0307 22.7074V28.7074C72.5852 28.7074 79.4715 21.7143 79.4715 13.148H73.4715ZM76.4715 16.148L88.5943 16.1479L88.5943 10.1479L76.4715 10.148L76.4715 16.148ZM88.5943 16.1479H89.4962V10.1479H88.5943V16.1479ZM86.4962 13.1479V13.6737H92.4962V13.1479H86.4962ZM87.9855 16.2655L111.048 29.7076L114.069 24.5239L91.0069 11.0818L87.9855 16.2655ZM109.954 25.6264L98.0696 46.4078L103.278 49.3865L115.163 28.6051L109.954 25.6264ZM102.185 45.3053L91.0069 38.7904L87.9855 43.9741L99.1631 50.4891L102.185 45.3053ZM86.4962 41.3822V74.4509H92.4962V41.3822H86.4962ZM89.4962 71.4509H38.565V77.4509H89.4962V71.4509ZM41.565 74.4509V40.8565H35.565V74.4509H41.565ZM37.0543 38.2647L24.9748 45.3053L27.9962 50.4891L40.0757 43.4484L37.0543 38.2647ZM29.0897 46.4078L17.2049 25.6264L11.9965 28.6051L23.8813 49.3865L29.0897 46.4078ZM16.1114 29.7076L40.0757 15.7398L37.0543 10.5561L13.09 24.5239L16.1114 29.7076ZM38.565 16.1479L51.5899 16.148L51.5899 10.148L38.565 10.1479L38.565 16.1479ZM64.0307 22.7074C58.8435 22.7074 54.5899 18.4544 54.5899 13.148H48.5899C48.5899 21.7143 55.4762 28.7074 64.0307 28.7074V22.7074Z" fill="black" mask="url(#path-4-inside-1_226_3368)"/>
<path d="M38.42 106.23V101.73H56.8043V106.23" stroke="black" stroke-width="3"/>
<path d="M72.7003 106.23V101.73H91.0846V106.23" stroke="black" stroke-width="3"/>
<path d="M47.4841 101.168V92.1694" stroke="black" stroke-width="3"/>
<path d="M64.8523 71.9629L64.8523 92.1694" stroke="black" stroke-width="3"/>
<path d="M93.4495 92.1694L37.5177 92.1694" stroke="black" stroke-width="3"/>
<path d="M81.8924 101.168V92.1694" stroke="black" stroke-width="3"/>
</svg>
