<svg width="121" height="121" viewBox="0 0 121 121" fill="none" xmlns="http://www.w3.org/2000/svg">
<path d="M90.2071 51.8884C92.0327 50.0629 97.0139 47.5071 102.334 51.8884C107.654 56.2698 113.418 52.1491 115.635 49.5411" stroke="black" stroke-width="3"/>
<path d="M90.2071 59.4868C92.0327 57.6613 97.0139 55.1055 102.334 59.4868C107.654 63.8682 113.418 59.7475 115.635 57.1395" stroke="black" stroke-width="3"/>
<path d="M90.2071 44.2904C92.0327 42.4649 97.0139 39.9091 102.334 44.2904C107.654 48.6718 113.418 44.5511 115.635 41.9431" stroke="black" stroke-width="3"/>
<mask id="path-4-inside-1_226_3369" fill="white">
<path fill-rule="evenodd" clip-rule="evenodd" d="M23.1786 32.7467C13.4601 32.7467 5.58163 40.6252 5.58163 50.3437C5.58163 60.0623 13.4601 67.9407 23.1787 67.9407H56.6742L76.0179 80.6558C77.3479 81.53 79.1165 80.576 79.1165 78.9845V62.3813C83.8915 60.1715 87.2041 55.3379 87.2041 49.7305C87.2041 44.1232 83.8915 39.2895 79.1165 37.0797V20.6474C79.1165 19.0221 77.2806 18.0755 75.9565 19.0182L56.6742 32.7467H23.1786Z"/>
</mask>
<path d="M56.6742 67.9407L58.3221 65.4338L57.5719 64.9407H56.6742V67.9407ZM76.0179 80.6558L77.6658 78.1489H77.6658L76.0179 80.6558ZM79.1165 62.3813L77.8565 59.6588L76.1165 60.464V62.3813H79.1165ZM79.1165 37.0797H76.1165V38.997L77.8565 39.8023L79.1165 37.0797ZM75.9565 19.0182L74.2165 16.5743V16.5743L75.9565 19.0182ZM56.6742 32.7467V35.7467H57.6331L58.4142 35.1906L56.6742 32.7467ZM8.58163 50.3437C8.58163 42.282 15.1169 35.7467 23.1786 35.7467V29.7467C11.8032 29.7467 2.58163 38.9683 2.58163 50.3437H8.58163ZM23.1787 64.9407C15.117 64.9407 8.58163 58.4054 8.58163 50.3437H2.58163C2.58163 61.7191 11.8032 70.9407 23.1787 70.9407V64.9407ZM56.6742 64.9407H23.1787V70.9407H56.6742V64.9407ZM77.6658 78.1489L58.3221 65.4338L55.0264 70.4476L74.3701 83.1627L77.6658 78.1489ZM76.1165 78.9845C76.1165 78.1888 77.0008 77.7118 77.6658 78.1489L74.3701 83.1627C77.6949 85.3482 82.1165 82.9633 82.1165 78.9845H76.1165ZM76.1165 62.3813V78.9845H82.1165V62.3813H76.1165ZM84.2041 49.7305C84.2041 54.1259 81.6101 57.9216 77.8565 59.6588L80.3765 65.1039C86.1729 62.4214 90.2041 56.5499 90.2041 49.7305H84.2041ZM77.8565 39.8023C81.6101 41.5394 84.2041 45.3351 84.2041 49.7305H90.2041C90.2041 42.9112 86.1729 37.0396 80.3765 34.3571L77.8565 39.8023ZM76.1165 20.6474V37.0797H82.1165V20.6474H76.1165ZM77.6965 21.4621C77.0345 21.9334 76.1165 21.4601 76.1165 20.6474H82.1165C82.1165 16.5841 77.5266 14.2176 74.2165 16.5743L77.6965 21.4621ZM58.4142 35.1906L77.6965 21.4621L74.2165 16.5743L54.9342 30.3029L58.4142 35.1906ZM23.1786 35.7467H56.6742V29.7467H23.1786V35.7467Z" fill="black" mask="url(#path-4-inside-1_226_3369)"/>
<path d="M35.0078 66.6107L54.2401 91.6748C57.3804 95.7673 54.4626 101.684 49.3041 101.684V101.684C47.3187 101.684 45.4526 100.736 44.2811 99.1334L20.5116 66.6107" stroke="black" stroke-width="3"/>
<line x1="34.6331" y1="33.5456" x2="34.6323" y2="65.2799" stroke="black" stroke-width="3"/>
<line x1="77.619" y1="37.5034" x2="77.619" y2="62.1284" stroke="black" stroke-width="3"/>
</svg>
